<?xml version="1.0" standalone="no"?>
<!DOCTYPE svg PUBLIC "-//W3C//DTD SVG 20010904//EN"
 "http://www.w3.org/TR/2001/REC-SVG-20010904/DTD/svg10.dtd">
<svg version="1.0" xmlns="http://www.w3.org/2000/svg"
 width="800.000000pt" height="800.000000pt" viewBox="0 0 800.000000 800.000000"
 preserveAspectRatio="xMidYMid meet">
<metadata>
Created by potrace 1.11, written by Peter Selinger 2001-2013
</metadata>
<g transform="translate(0.000000,800.000000) scale(0.100000,-0.100000)"
fill="#000000" stroke="none">
<path d="M3730 7989 c-184 -13 -303 -28 -492 -65 -1215 -236 -2246 -1015
-2806 -2121 -488 -963 -565 -2087 -211 -3108 198 -574 518 -1085 949 -1515
234 -234 454 -410 712 -571 870 -542 1904 -729 2908 -528 1198 240 2224 1022
2778 2116 488 963 564 2087 211 3108 -305 882 -909 1630 -1709 2115 -700 425
-1527 626 -2340 569z m2730 -2339 l0 -820 -1090 0 -1090 0 0 820 0 820 1090 0
1090 0 0 -820z m-2740 -555 l0 -1365 -1090 0 -1090 0 0 1365 0 1365 1090 0
1090 0 0 -1365z m2740 -2190 l0 -1365 -1095 0 -1095 0 0 1365 0 1365 1095 0
1095 0 0 -1365z m-2740 -550 l0 -815 -1095 0 -1095 0 0 815 0 815 1095 0 1095
0 0 -815z"/>
<path d="M4690 5643 l0 -513 680 0 680 0 0 513 0 512 -680 0 -680 0 0 -512z"/>
<path d="M1950 5100 l0 -850 680 0 680 0 0 850 0 850 -680 0 -680 0 0 -850z"/>
<path d="M4695 2900 l0 -850 678 0 677 0 0 850 0 850 -677 0 -678 0 0 -850z"/>
<path d="M1950 2355 l0 -515 680 0 680 0 0 515 0 515 -680 0 -680 0 0 -515z"/>
</g>
</svg>
