<?xml version="1.0" encoding="UTF-8" standalone="no"?><!-- Generator: Gravit.io --><svg xmlns="http://www.w3.org/2000/svg" xmlns:xlink="http://www.w3.org/1999/xlink" style="isolation:isolate" viewBox="297.638 288 50.023 28.346" width="50.023pt" height="28.346pt"><path d=" M 346.827 299.672 L 345.16 299.672 L 345.16 297.171 C 345.16 296.71 344.787 296.337 344.326 296.337 L 342.659 296.337 L 342.659 293.002 L 345.994 293.002 L 345.994 291.335 L 342.659 291.335 L 342.659 290.501 C 342.655 289.122 341.537 288.004 340.157 288 L 314.312 288 C 312.933 288.004 311.815 289.122 311.811 290.501 L 311.811 296.337 L 309.31 296.337 C 308.849 296.337 308.476 296.71 308.476 297.171 L 308.476 299.672 L 305.141 299.672 L 305.141 298.005 C 305.141 297.544 304.768 297.171 304.308 297.171 L 298.472 297.171 C 298.011 297.171 297.638 297.544 297.638 298.005 L 297.638 306.342 C 297.638 306.802 298.011 307.176 298.472 307.176 L 304.308 307.176 C 304.768 307.176 305.141 306.802 305.141 306.342 L 305.141 304.674 L 308.476 304.674 L 308.476 307.176 C 308.476 307.636 308.849 308.009 309.31 308.009 L 311.811 308.009 L 311.811 313.845 C 311.815 315.225 312.933 316.342 314.312 316.346 L 340.157 316.346 C 341.537 316.342 342.655 315.225 342.659 313.845 L 342.659 313.012 L 345.994 313.012 L 345.994 311.344 L 342.659 311.344 L 342.659 308.009 L 344.326 308.009 C 344.787 308.009 345.16 307.636 345.16 307.176 L 345.16 304.674 L 346.827 304.674 C 347.288 304.674 347.661 304.301 347.661 303.841 L 347.661 300.506 C 347.661 300.045 347.288 299.672 346.827 299.672 Z  M 303.474 305.508 L 299.305 305.508 L 299.305 304.674 L 303.474 304.674 L 303.474 305.508 Z  M 303.474 303.007 L 299.305 303.007 L 299.305 301.34 L 303.474 301.34 L 303.474 303.007 Z  M 303.474 299.672 L 299.305 299.672 L 299.305 298.838 L 303.474 298.838 L 303.474 299.672 Z  M 308.476 303.007 L 305.141 303.007 L 305.141 301.34 L 308.476 301.34 L 308.476 303.007 Z  M 311.811 306.342 L 310.144 306.342 L 310.144 298.005 L 311.811 298.005 L 311.811 306.342 Z  M 334.321 308.009 L 316.813 308.009 L 316.813 296.337 L 334.321 296.337 L 334.321 308.009 Z  M 334.321 294.67 L 315.98 294.67 C 315.519 294.67 315.146 295.043 315.146 295.503 L 315.146 308.843 C 315.146 309.303 315.519 309.677 315.98 309.677 L 334.321 309.677 L 334.321 314.679 L 314.312 314.679 C 313.852 314.679 313.478 314.306 313.478 313.845 L 313.478 290.501 C 313.478 290.041 313.852 289.667 314.312 289.667 L 334.321 289.667 L 334.321 294.67 Z  M 340.991 313.845 C 340.991 314.306 340.618 314.679 340.157 314.679 L 335.989 314.679 L 335.989 289.667 L 340.157 289.667 C 340.618 289.667 340.991 290.041 340.991 290.501 L 340.991 313.845 Z  M 343.492 306.342 L 342.659 306.342 L 342.659 298.005 L 343.492 298.005 L 343.492 306.342 Z  M 345.994 303.007 L 345.16 303.007 L 345.16 301.34 L 345.994 301.34 L 345.994 303.007 Z " fill="rgb(0,0,0)"/></svg>