<svg height="512" viewBox="0 0 64 64" width="512" xmlns="http://www.w3.org/2000/svg"><g id="dc_motor-electronics-2" data-name="dc motor-electronics"><path d="m55 19h5v2h-5z"/><path d="m55 43h5v2h-5z"/><path d="m21 18v28a1 1 0 0 0 1 1h24v-6h-22a1 1 0 0 1 -1-1v-16a1 1 0 0 1 1-1h22v-6h-24a1 1 0 0 0 -1 1z"/><path d="m55 27h2v10h-2z"/><path d="m53 17h-5v30h5a1 1 0 0 0 1-1v-28a1 1 0 0 0 -1-1z"/><path d="m58 31h2v2h-2z"/><path d="m25 25h21v14h-21z"/><path d="m4 35h5v1h-5z"/><path d="m17 27h2v10h-2z"/><path d="m4 28h5v1h-5z"/><path d="m4 31h5v2h-5z"/><path d="m11 31h4v2h-4z"/></g></svg>