<?xml version="1.0" encoding="UTF-8" standalone="no"?><!-- Generator: Gravit.io --><svg xmlns="http://www.w3.org/2000/svg" xmlns:xlink="http://www.w3.org/1999/xlink" style="isolation:isolate" viewBox="194.736 438.945 52.913 28.346" width="52.913pt" height="28.346pt"><g><path d=" M 242.925 440.835 L 247.649 440.835 L 247.649 442.724 L 242.925 442.724 L 242.925 440.835 Z  M 242.925 463.512 L 247.649 463.512 L 247.649 465.402 L 242.925 465.402 L 242.925 463.512 Z  M 210.799 439.89 L 210.799 466.346 C 210.799 466.868 211.222 467.291 211.744 467.291 L 234.421 467.291 L 234.421 461.622 L 213.633 461.622 C 213.111 461.622 212.688 461.199 212.688 460.677 L 212.688 445.559 C 212.688 445.037 213.111 444.614 213.633 444.614 L 234.421 444.614 L 234.421 438.945 L 211.744 438.945 C 211.222 438.945 210.799 439.368 210.799 439.89 Z  M 242.925 448.394 L 244.814 448.394 L 244.814 457.843 L 242.925 457.843 L 242.925 448.394 Z  M 241.035 438.945 L 236.31 438.945 L 236.31 467.291 L 241.035 467.291 C 241.557 467.291 241.98 466.868 241.98 466.346 L 241.98 439.89 C 241.98 439.368 241.557 438.945 241.035 438.945 Z  M 245.759 452.173 L 247.649 452.173 L 247.649 454.063 L 245.759 454.063 L 245.759 452.173 Z  M 214.578 446.504 L 234.421 446.504 L 234.421 459.732 L 214.578 459.732 L 214.578 446.504 Z  M 194.736 455.953 L 199.46 455.953 L 199.46 456.898 L 194.736 456.898 L 194.736 455.953 Z  M 207.019 448.394 L 208.909 448.394 L 208.909 457.843 L 207.019 457.843 L 207.019 448.394 Z  M 194.736 449.339 L 199.46 449.339 L 199.46 450.283 L 194.736 450.283 L 194.736 449.339 Z  M 194.736 452.173 L 199.46 452.173 L 199.46 454.063 L 194.736 454.063 L 194.736 452.173 Z  M 201.35 452.173 L 205.129 452.173 L 205.129 454.063 L 201.35 454.063 L 201.35 452.173 Z " fill-rule="evenodd" fill="rgb(0,0,0)"/></g></svg>